#N canvas 268 369 1329 955 10;
#X obj 230 313 dac~;
#X obj 199 61 noise~;
#X obj 105 153 lop~;
#X obj 197 156 hip~;
#X obj 105 221 *~;
#X obj 130 198 tgl 15 0 empty empty empty 17 7 0 10 -262144 -1 -1 0
1;
#X obj 198 226 *~;
#X obj 223 203 tgl 15 0 empty empty empty 17 7 0 10 -262144 -1 -1 0
1;
#X obj 305 221 *~;
#X obj 330 198 tgl 15 0 empty empty empty 17 7 0 10 -262144 -1 -1 0
1;
#X obj 310 158 bp~, f 7;
#X floatatom 331 78 5 0 0 0 - - -;
#X floatatom 372 79 5 0 0 0 - - -;
#X floatatom 360 196 5 0 0 0 - - -;
#X floatatom 230 135 5 0 0 0 - - -;
#X obj 431 160 vcf~, f 6;
#X obj 429 222 *~;
#X obj 454 199 tgl 15 0 empty empty empty 17 7 0 10 -262144 -1 -1 1
1;
#X floatatom 484 197 5 0 0 0 - - -;
#X floatatom 147 131 5 0 0 0 - - -;
#X obj 440 49 osc~;
#X floatatom 444 25 5 0 0 0 - - -;
#X obj 454 87 +~ 1;
#X obj 460 109 *~ 50;
#X floatatom 491 140 5 0 0 0 - - -;
#X floatatom 503 85 5 0 0 0 - - -;
#X connect 1 0 2 0;
#X connect 1 0 3 0;
#X connect 1 0 10 0;
#X connect 1 0 15 0;
#X connect 2 0 4 0;
#X connect 3 0 6 0;
#X connect 4 0 0 0;
#X connect 4 0 0 1;
#X connect 5 0 4 1;
#X connect 6 0 0 0;
#X connect 6 0 0 1;
#X connect 7 0 6 1;
#X connect 8 0 0 0;
#X connect 8 0 0 1;
#X connect 9 0 8 1;
#X connect 10 0 8 0;
#X connect 11 0 10 1;
#X connect 12 0 10 2;
#X connect 13 0 8 1;
#X connect 14 0 3 1;
#X connect 15 0 16 0;
#X connect 16 0 0 0;
#X connect 16 0 0 1;
#X connect 17 0 16 1;
#X connect 18 0 16 1;
#X connect 19 0 2 1;
#X connect 20 0 22 0;
#X connect 21 0 20 0;
#X connect 22 0 23 0;
#X connect 23 0 15 1;
#X connect 24 0 15 2;
#X connect 25 0 23 1;
