#N canvas 591 283 1942 1498 10;
#X obj 189 576 mout~;
#X obj 53 388 fm_vv~;
#X floatatom 132 210 5 0 0 0 - - -;
#X floatatom 127 262 5 0 0 0 - - -;
#X obj 120 49 bng 15 250 50 0 empty empty empty 17 7 0 10 -262144 -1
-1;
#X obj 115 180 f;
#X obj 158 179 + 1;
#X obj 113 351 bng 15 250 50 0 empty empty empty 17 7 0 10 -262144
-1 -1;
#X obj 137 352 bng 15 250 50 0 empty empty empty 17 7 0 10 -262144
-1 -1;
#X obj 159 352 bng 15 250 50 0 empty empty empty 17 7 0 10 -262144
-1 -1;
#X obj 103 388 fm_vv~;
#X obj 153 388 fm_vv~;
#X floatatom 171 107 5 0 0 0 - - -;
#X msg 151 49 stop;
#X obj 203 388 fm_vv~;
#X obj 253 388 fm_vv~;
#X obj 303 388 fm_vv~;
#X obj 353 388 fm_vv~;
#X obj 403 388 fm_vv~;
#X obj 115 236 % 8;
#X obj 115 325 select 0 1 2 3 4 5 6 7;
#X obj 180 352 bng 15 250 50 0 empty empty empty 17 7 0 10 -262144
-1 -1;
#X obj 204 353 bng 15 250 50 0 empty empty empty 17 7 0 10 -262144
-1 -1;
#X obj 226 353 bng 15 250 50 0 empty empty empty 17 7 0 10 -262144
-1 -1;
#X obj 246 353 bng 15 250 50 0 empty empty empty 17 7 0 10 -262144
-1 -1;
#X obj 268 353 bng 15 250 50 0 empty empty empty 17 7 0 10 -262144
-1 -1;
#X obj 120 137 metro 250;
#X connect 1 0 0 0;
#X connect 4 0 26 0;
#X connect 5 0 2 0;
#X connect 5 0 6 0;
#X connect 5 0 19 0;
#X connect 6 0 5 1;
#X connect 7 0 1 0;
#X connect 8 0 10 0;
#X connect 9 0 11 0;
#X connect 10 0 0 0;
#X connect 11 0 0 0;
#X connect 12 0 26 1;
#X connect 13 0 26 0;
#X connect 14 0 0 0;
#X connect 15 0 0 0;
#X connect 16 0 0 0;
#X connect 17 0 0 0;
#X connect 18 0 0 0;
#X connect 19 0 3 0;
#X connect 19 0 20 0;
#X connect 20 0 7 0;
#X connect 20 1 8 0;
#X connect 20 2 9 0;
#X connect 20 3 21 0;
#X connect 20 4 22 0;
#X connect 20 5 23 0;
#X connect 20 6 24 0;
#X connect 20 7 25 0;
#X connect 21 0 14 0;
#X connect 22 0 15 0;
#X connect 23 0 16 0;
#X connect 24 0 17 0;
#X connect 25 0 18 0;
#X connect 26 0 5 0;
