#N canvas 2451 546 415 417 10;
#X obj 31 34 vsl 15 128 0 127 0 0 empty empty empty 0 -9 0 10 -237238
-1 -1 0 1;
#X obj 33 364 outlet~;
#X obj 32 308 f;
#X obj 32 336 fm_v~ 100 130;
#X obj 102 22 inlet;
#X obj 52 33 bng 15 250 50 0 empty empty empty 17 7 0 10 -262144 -1
-1;
#X obj 64 221 mtof;
#X floatatom 75 247 5 0 0 0 - - -;
#X connect 0 0 6 0;
#X connect 2 0 3 0;
#X connect 3 0 1 0;
#X connect 4 0 5 0;
#X connect 5 0 2 0;
#X connect 6 0 2 1;
#X connect 6 0 7 0;
#X coords 0 -1 1 1 50 150 1 25 25;
