#N canvas 1408 337 943 1031 10;
#X obj 169 26 inlet;
#X obj 242 280 osc~ 1;
#X floatatom 295 291 5 0 0 0 - - -;
#X floatatom 206 309 5 0 0 0 - - -;
#X obj 206 346 +~;
#X floatatom 241 259 5 0 0 0 - - -;
#X obj 264 314 *~;
#X obj 139 426 *~;
#X floatatom 215 107 5 0 0 0 - - -;
#X obj 189 155 f;
#X floatatom 210 182 5 0 0 0 - - -;
#X obj 188 58 bng 15 250 50 0 empty empty empty 17 7 0 10 -262144 -1
-1;
#X obj 189 204 t b f b;
#X obj 140 450 outlet~;
#X obj 252 191 loadbang;
#X obj 206 382 tri2~;
#X obj 252 223 \$1;
#X obj 287 231 \$2;
#X obj 39 379 adsr~ 25 0.85 10 60 40;
#X connect 0 0 9 0;
#X connect 1 0 6 0;
#X connect 2 0 6 1;
#X connect 3 0 4 0;
#X connect 4 0 15 0;
#X connect 5 0 1 0;
#X connect 6 0 4 1;
#X connect 7 0 13 0;
#X connect 8 0 9 1;
#X connect 9 0 10 0;
#X connect 9 0 12 0;
#X connect 11 0 9 0;
#X connect 12 0 18 0;
#X connect 12 1 3 0;
#X connect 14 0 16 0;
#X connect 14 0 17 0;
#X connect 15 0 7 1;
#X connect 16 0 5 0;
#X connect 17 0 2 0;
#X connect 18 0 7 0;
