#N canvas 549 415 741 677 10;
#X obj 37 192 osc~ 440;
#X obj 101 219 vline~;
#X obj 33 277 dac~;
#X obj 36 249 *~;
#X msg 100 192 1 20 \, 0.8 10 30 \, 0 5 50;
#X obj 37 162 vline~;
#X msg 36 134 30 \, \$1 10 30 \, 50 5 50;
#X obj 36 85 t f b;
#X obj 36 107 mtof;
#X obj 39 34 hsl 128 15 0 127 0 0 empty empty empty -2 -8 0 10 -262144
-1 -1 0 1;
#X floatatom 42 57 5 0 0 0 - - -;
#X connect 0 0 3 0;
#X connect 1 0 3 1;
#X connect 3 0 2 0;
#X connect 3 0 2 1;
#X connect 4 0 1 0;
#X connect 5 0 0 0;
#X connect 6 0 5 0;
#X connect 7 0 8 0;
#X connect 7 1 4 0;
#X connect 8 0 6 0;
#X connect 9 0 10 0;
#X connect 9 0 7 0;
