#N canvas 549 415 1194 1127 10;
#X obj 282 331 osc~ 440;
#X obj 380 356 vline~;
#X obj 280 527 dac~;
#X obj 281 388 *~;
#X msg 379 329 1 20 \, 0.8 10 30 \, 0 5 50;
#X obj 282 213 vline~;
#X obj 387 69 bng 15 250 50 0 empty empty empty 17 7 0 10 -262144 -1
-1;
#X floatatom 432 72 5 0 0 0 - - -;
#X obj 433 109 t f b;
#X obj 411 132 mtof;
#X msg 281 185 30 \, \$1 10 30 \, 50 5 50;
#X floatatom 417 157 5 0 0 0 - - -;
#N canvas 0 50 450 250 (subpatch) 0;
#X array a1 16 float 3;
#A 0 53.2457 82.6716 84.5822 36.8137 54.3933 45.6039 52.8648 59.743
70.4433 78.0856 62.0357 39.8717 45.2219 31.8457 48.2791 59.3615;
#X coords 0 127 16 20 200 140 1 0 0;
#X restore 33 29 graph;
#X obj 159 245 metro 200;
#X obj 159 220 bng 15 250 50 0 empty empty empty 17 7 0 10 -262144
-1 -1;
#X obj 171 269 bng 15 250 50 0 empty empty empty 17 7 0 10 -262144
-1 -1;
#X msg 181 220 stop;
#X obj 159 325 f;
#X obj 187 325 + 1;
#X floatatom 171 353 5 0 0 0 - - -;
#X obj 161 393 % 16;
#X floatatom 170 421 5 0 0 0 - - -;
#X obj 160 460 tabread a1;
#X floatatom 173 486 5 0 0 0 - - -;
#X obj 280 123 t f b;
#X obj 280 145 mtof;
#X floatatom 236 219 5 0 0 0 - - -;
#X obj 431 420 delread4~ xxx;
#X floatatom 431 378 5 0 0 0 - - -;
#X obj 431 398 sig~;
#X obj 402 488 delwrite~ xxx 2500;
#X obj 431 448 *~;
#X floatatom 486 456 5 0 1 0 - - -;
#X obj 30 172 hradio 13 1 0 16 empty empty empty 0 -8 0 10 -262130
-1 -1 3;
#X obj 281 446 +~;
#X obj 432 44 bng 15 250 50 0 empty empty empty 17 7 0 10 -262144 -1
-1;
#X obj 171 289 bng 15 250 50 0 empty empty empty 17 7 0 10 -262144
-1 -1;
#X connect 0 0 3 0;
#X connect 1 0 3 1;
#X connect 3 0 34 0;
#X connect 4 0 1 0;
#X connect 5 0 0 0;
#X connect 6 0 10 0;
#X connect 6 0 4 0;
#X connect 7 0 8 0;
#X connect 8 0 9 0;
#X connect 8 1 4 0;
#X connect 9 0 10 0;
#X connect 9 0 11 0;
#X connect 10 0 5 0;
#X connect 13 0 15 0;
#X connect 13 0 17 0;
#X connect 14 0 13 0;
#X connect 16 0 13 0;
#X connect 17 0 18 0;
#X connect 17 0 19 0;
#X connect 17 0 20 0;
#X connect 18 0 17 1;
#X connect 20 0 21 0;
#X connect 20 0 22 0;
#X connect 20 0 33 0;
#X connect 22 0 23 0;
#X connect 22 0 24 0;
#X connect 24 0 25 0;
#X connect 24 1 4 0;
#X connect 25 0 10 0;
#X connect 26 0 13 1;
#X connect 27 0 31 0;
#X connect 28 0 29 0;
#X connect 29 0 27 0;
#X connect 31 0 34 1;
#X connect 32 0 31 1;
#X connect 34 0 2 0;
#X connect 34 0 2 1;
#X connect 34 0 30 0;
#X connect 35 0 7 0;
#X connect 36 0 17 0;
